<?xml version="1.0" encoding="utf-8"?>
<!-- Generator: Adobe Illustrator 23.0.1, SVG Export Plug-In . SVG Version: 6.00 Build 0)  -->
<svg version="1.1" id="Layer_1" xmlns="http://www.w3.org/2000/svg" xmlns:xlink="http://www.w3.org/1999/xlink" x="0px" y="0px"
	 viewBox="0 0 344.5 125.1" style="enable-background:new 0 0 344.5 125.1;" xml:space="preserve">
<g>
	<path style="fill:#FFFFFF;" d="M0,0v125.1h129.9V0H0z M63.1,107.5L20.6,17.6h26l28.7,61.8L63.1,107.5z M97.5,107.5L55,17.6h26
		l28.7,61.8L97.5,107.5z"/>
	<g>
		<path style="fill:#FFFFFF;" d="M152,96.3l-16.1-67.5h14L160,75.2l12.4-46.4h16.2L200.4,76l10.4-47.2h13.7l-16.4,67.5h-14.5
			l-13.4-50.5l-13.4,50.5L152,96.3L152,96.3z"/>
		<path style="fill:#FFFFFF;" d="M272.1,71.5l13.2,4.2c-2,7.4-5.4,12.8-10.1,16.4c-4.7,3.6-10.7,5.4-18,5.4c-9,0-16.3-3.1-22.1-9.2
			c-5.8-6.1-8.7-14.5-8.7-25.1c0-11.2,2.9-20,8.7-26.2c5.8-6.2,13.4-9.3,22.9-9.3c8.3,0,15,2.4,20.1,7.3c3.1,2.9,5.4,7,6.9,12.4
			l-13.5,3.2c-0.8-3.5-2.5-6.3-5-8.3c-2.5-2-5.6-3-9.2-3c-5,0-9.1,1.8-12.2,5.4s-4.7,9.4-4.7,17.5c0,8.5,1.5,14.6,4.6,18.2
			c3.1,3.6,7.1,5.4,12,5.4c3.6,0,6.7-1.2,9.4-3.5C269.1,80,271,76.4,272.1,71.5z"/>
		<path style="fill:#FFFFFF;" d="M289.5,74.3l13.3-1.3c0.8,4.4,2.4,7.7,4.9,9.8c2.4,2.1,5.7,3.1,9.9,3.1c4.4,0,7.7-0.9,9.9-2.8
			c2.2-1.9,3.3-4,3.3-6.5c0-1.6-0.5-3-1.4-4.1s-2.6-2.1-4.9-2.9c-1.6-0.6-5.2-1.5-10.9-2.9c-7.3-1.8-12.4-4-15.4-6.7
			c-4.1-3.7-6.2-8.3-6.2-13.6c0-3.4,1-6.7,2.9-9.6s4.8-5.3,8.4-6.8c3.7-1.6,8.1-2.4,13.3-2.4c8.5,0,14.9,1.9,19.1,5.6
			c4.3,3.7,6.5,8.7,6.8,14.9l-13.6,0.6c-0.6-3.5-1.8-6-3.8-7.5c-1.9-1.5-4.8-2.3-8.6-2.3c-4,0-7.1,0.8-9.3,2.4
			c-1.4,1-2.2,2.4-2.2,4.2c0,1.6,0.7,3,2,4.1c1.7,1.4,5.9,3,12.5,4.5c6.6,1.6,11.5,3.2,14.7,4.9c3.2,1.7,5.7,4,7.5,6.9
			c1.8,2.9,2.7,6.5,2.7,10.8c0,3.9-1.1,7.5-3.2,10.9c-2.1,3.4-5.2,5.9-9.1,7.5s-8.8,2.5-14.7,2.5c-8.5,0-15.1-2-19.7-5.9
			C293.2,87.6,290.4,81.9,289.5,74.3z"/>
	</g>
</g>
</svg>
