<svg xmlns="http://www.w3.org/2000/svg" viewBox="0 0 48.3 72.6"><path fill="none" stroke="#fff" stroke-width="2" d="M8 52.4v-.1h-.1l-.3-.1-.5.2-.4.2h-.2v.1l-.4.2-.3.3h-.1l-.3.1v.1h-.1v.1h-.1v.1l-1.5 1.2-.4-.1-.7.4v.1l-.3.2h-.6v-.1l-.5.1H1v-8.6h3.1V46h.8v-1.5h.8l2.9.6 2.1 6.5h.2v.2h.2l2 1.2-2.2 1L8 52.4z" stroke-linecap="round" stroke-linejoin="round"/><path fill="none" stroke="#fff" stroke-width="2" d="M41.5 17.1V17h.1l.9.3 2.4 2.5.5 1.6 1.1-3-2.1-3.9-1.2-1.1-1.4.9-5.4-2.1v-1.8h.4l.2 1.1 1.3-.1 1.1-1.7.1-.3-.2-1.4-.4-1.2-1.4.1-1.2-2.3 1-.9h.6l-.1 1.6 1.7-.4.3-1.3-1.5-.6.6-2-1.7.1-.5 1.6-1.3.1-.2-1-1.7-.2-.3.9 1.3.9.2 4.3h-1.1v2.8h-1.2l-.3 1.9v2.8l3.6 4.2h1l.9 5.8v3.2h-3.1L33 26l-.8.1-.8-3.1h-1.6l-7 .1.1 3.8-4.7.1-1.1.8-.4 1.5-1.5 2.8-6.2 2v4.6l1.9 1.3 1.8 3.7 4.9 4.7 1.1 1.4.9 1.6-.8.3h-.4l-4.6 3 .3.9-2.5.9-1.5 1.4-.1 1-1.4.3-2.9.8-2 2.4-1.1.6-.3 1.3H5v-1.2h8.5v-.8l6.2-.1 2.4 3.1 1.7.8v.8l2.3-.1v1.6h-.7v1.2l.8 1.9.3.1 1.5-1 .9-1.1h.3l.3-.1 6.2-4 1.2-.9.2.1v1.3l-2.1.6.6 2.5.3.1.2-.6 3.9-1.7 1.1-1.1 6.2-1.3v-.8l-3.5.1 1.5-5.7v-2.3l-.9-3.1-3.9-7.5h-1.8v-1.9l-1.9-3.3h2.5l.1 3.1 2.1-.8v-1.5h2.4l-.9-2.5v-1l.1-1.6-.1-.4-1.1-3.4 2-1 .8-2.6-4 .1v-.7l.4-.1 3.1-3.3-2.7-7.1" stroke-linecap="round" stroke-linejoin="round"/><circle cx="38.1" cy="21.4" r="6" fill="red"/></svg>