<svg xmlns="http://www.w3.org/2000/svg" height="130" viewBox="0 0 130 130" width="130"><path fill="none" stroke="#fff" stroke-width="6.71" stroke-miterlimit="10" d="M34.5 7a17 17 0 0 0-9.4 1.6c-2.9 1.6-5 4.2-6.9 6.9s-3.8 5.7-4.4 9.1c-1.1 6.2 2.7 12.6 8.1 15.8s12.1 3.7 18.3 2.5a18.2 18.2 0 0 0 5-1.6c4.1-2.1 6.5-6.6 7.5-11.2C55.3 17.7 47.2 7.9 34.5 7zm32.2.5a23.1 23.1 0 0 0-8.4 11.1 21.8 21.8 0 0 0-.6 13.8 19.6 19.6 0 0 0 20 13.2 21.5 21.5 0 0 0 18.3-16c2-8.4-1.5-16.3-7.3-22.2s-15.9-4.2-22 .1z"/><path fill="none" stroke="#fff" stroke-width="6.71" stroke-miterlimit="10" d="M21.6 44.8c-3.9.1-8.5.7-10.3 4.4s-.2 10.3-.3 15.2a131 131 0 0 0 .6 19.8c.2 1.9.5 3.9 1.9 5.1s3.2 1.2 5 1.1q35.1-1.4 70.3 0c3.2.1 7 0 9-2.8s1.4-3.9 1.6-6.1a255.2 255.2 0 0 0 .5-29c-.1-2.4-.4-5.1-2.2-6.5a7 7 0 0 0-4-.9c-12.8 0-25.5.3-38.3.2s-22.6-.8-33.8-.5z"/><path fill="none" stroke="#fff" stroke-width="6.71" stroke-miterlimit="10" d="M99.3 57.5l9.2-8.7c2.3-2.1 4.9-4.2 7.7-3.8a2.6 2.6 0 0 1 1.8.9 5.4 5.4 0 0 1 .8 3.3c.8 12.7 1.1 25.5.8 38.3a7.6 7.6 0 0 1-.3 2.1c-.8 2.2-3.4 1.7-5.2.8a115.6 115.6 0 0 1-15.5-9.3m-56.4 8.4c-4.7 12.8-8.8 22.9-14.5 35.3m28.1-33.5l-1 38.3M70 89.8c4 11.5 9.2 24 13.7 35.1M45.8 77.8c0 .9.2 2 1 2.2a2.2 2.2 0 0 0 1.6-.3A140.6 140.6 0 0 0 67 69.3a3.4 3.4 0 0 0 1.2-1.2c.6-1.3-.7-2.6-1.9-3.4a75.2 75.2 0 0 0-9.2-5.2c-2.8-1.4-5.8-3.2-8.8-4a2.1 2.1 0 0 0-1.9.2c-1.8 1.3-.7 7.3-.7 9.3 0 4.2 0 8.5.1 12.8z"/></svg>