<svg xmlns="http://www.w3.org/2000/svg" height="135" viewBox="0 0 135 135" width="135"><path fill="none" stroke="#fff" stroke-width="6.71" stroke-miterlimit="10" d="M56.3 40.9a35 35 0 0 1 10-3c3.9-.4 7.9.5 11.7 1.4a84.1 84.1 0 0 1 13 3.8c4.9 2.1 9.4 5.2 13.8 8.3 2.8 2 13.5 8.8 11.5 13.1a5.5 5.5 0 0 1-1.6 1.8C102.1 76.4 84.8 84.9 68.4 85s-32-7.7-44.3-18.6a1.5 1.5 0 0 1-.6-.9 1.9 1.9 0 0 1 .2-.8c1.7-3.3 4.4-5 6.9-7.4s4.9-5.1 8-7.2a102.4 102.4 0 0 1 17.7-9.2z"/><path fill="none" stroke="#fff" stroke-width="6.71" stroke-miterlimit="10" d="M113.2 50.6a61.8 61.8 0 0 0-7.3-11c-6.2-6.8-15.3-10.3-24-13.4A57.3 57.3 0 0 0 69 22.7c-4.9-.5-9.9.2-14.9.9s-9.5 1.4-13.6 3.8-7 6.1-9.6 9.9c-5.4 8-9.8 16.9-10.9 26.5s1.3 19.9 7.9 26.9 16.1 10 25.1 12.9 18.7 6.2 28 4c4.3-1 8.2-3.2 12.1-5.4s9.5-5.5 13.1-9.7 4.9-7.6 6.8-11.6 5.2-11 5.1-16.8-2.5-9.4-4.9-13.5z"/><path fill="none" stroke="#fff" stroke-width="6.71" stroke-miterlimit="10" d="M130.9 61a93.1 93.1 0 0 0-2-13.9 49.1 49.1 0 0 0-21.7-30.3 67.1 67.1 0 0 0-30.4-9.9 62.5 62.5 0 0 0-18.3 1.2c-9.4 2-18.2 6.1-26.5 10.7a53 53 0 0 0-9.7 6.5 46.1 46.1 0 0 0-8.1 10.1C7 46.6 1.8 59.9 4.2 73c1.3 6.7 4.5 13 7.8 19.1a111.8 111.8 0 0 0 10.3 16c5.7 7 13 10 21 14.3a40.2 40.2 0 0 0 16.8 5.2c5.9.3 11.6 1.6 17.2-.3a178 178 0 0 0 26.2-11.2c6.8-3.6 13.4-7.7 18.3-13.5 10.3-12.2 10.6-26.4 9.1-41.6z"/><path fill="none" stroke="#fff" stroke-width="6.71" stroke-miterlimit="10" d="M54 41.9c-1.9 1.6-3.3 5-3.4 7.8a34.5 34.5 0 0 0 .8 8.5c.6 2.9 1.4 5.9 3 8.1a11.6 11.6 0 0 0 6.8 4 49.6 49.6 0 0 0 9.4 1.4c4.4.3 8.9 0 12.9-2.5a17 17 0 0 0 7.4-13.8 21.7 21.7 0 0 0-4.3-13.9"/></svg>